<svg fill="#1A1A1A" xmlns="http://www.w3.org/2000/svg"  viewBox="0 0 48 48" width="48px" height="48px"><path d="M 24 3 C 12.413858 3 3 12.413866 3 24 C 3 35.586134 12.413858 45 24 45 C 35.586142 45 45 35.586134 45 24 C 45 12.413866 35.586142 3 24 3 z M 24 5 C 34.505263 5 43 13.494744 43 24 C 43 34.505256 34.505263 43 24 43 C 13.494737 43 5 34.505256 5 24 C 5 13.494744 13.494737 5 24 5 z M 23.984375 7.9863281 A 1.0001 1.0001 0 0 0 23 9 L 23 22.269531 A 2 2 0 0 0 24 26 A 2 2 0 0 0 25 22.269531 L 25 9 A 1.0001 1.0001 0 0 0 23.984375 7.9863281 z M 27.732422 26.236328 A 1.0001 1.0001 0 0 0 27.050781 27.998047 L 32.341797 32.626953 A 1.0001 1.0001 0 1 0 33.658203 31.123047 L 28.369141 26.494141 A 1.0001 1.0001 0 0 0 27.732422 26.236328 z"/></svg>